<svg width="20" height="19" viewBox="0 0 20 19" fill="none" xmlns="http://www.w3.org/2000/svg">
<path d="M6.42 17.2835C6.78092 17.9995 7.80314 17.9995 8.16406 17.2835L9.42957 14.7731C9.7651 14.1075 10.2485 13.5275 10.8429 13.0777L13.1969 11.296C13.7131 10.9052 13.7131 10.1294 13.1969 9.73861L10.8429 7.95689C10.2485 7.50705 9.7651 6.9271 9.42957 6.2615L8.16406 3.75107C7.80314 3.03509 6.78092 3.03509 6.42 3.75107L5.15449 6.2615C4.81897 6.9271 4.33553 7.50705 3.74119 7.95689L1.38719 9.73861C0.870937 10.1294 0.870937 10.9052 1.38719 11.296L3.74119 13.0777C4.33553 13.5275 4.81897 14.1075 5.15449 14.7731L6.42 17.2835ZM15.5142 5.55919C15.7862 6.10968 16.5713 6.10968 16.8432 5.55919C17.093 5.05382 17.4547 4.61207 17.901 4.26755L18.02 4.1757C18.4717 3.82689 18.4717 3.14517 18.02 2.79636L17.901 2.70451C17.4547 2.35999 17.093 1.91824 16.8432 1.41287C16.5713 0.862378 15.7862 0.862378 15.5142 1.41287C15.2645 1.91824 14.9028 2.35999 14.4566 2.70451L14.3376 2.79636C13.8858 3.14517 13.8858 3.82689 14.3376 4.1757L14.4566 4.26755C14.9028 4.61207 15.2645 5.05382 15.5142 5.55919Z" stroke="white" stroke-width="2" stroke-linejoin="round"/>
</svg>
