<svg width="23" height="25" viewBox="0 0 23 25" fill="none" xmlns="http://www.w3.org/2000/svg">
<path d="M19.1157 20.0684L17.7734 19.8125C18.2814 19.5316 18.7049 19.1197 18.9999 18.6199C19.2949 18.12 19.4507 17.5502 19.4512 16.9697V14.5845C19.4497 13.8306 19.1871 13.1006 18.708 12.5186C18.923 12.3403 19.0995 12.1201 19.2268 11.8715C19.354 11.6229 19.4295 11.351 19.4484 11.0723C19.4674 10.7936 19.4295 10.514 19.337 10.2505C19.2446 9.98692 19.0995 9.74491 18.9106 9.53914C18.7218 9.33337 18.493 9.16815 18.2383 9.05351C17.9837 8.93887 17.7083 8.87721 17.429 8.87227C17.1498 8.86733 16.8724 8.91922 16.6138 9.02478C16.3553 9.13034 16.1208 9.28737 15.9248 9.48633C15.6848 9.07748 15.3603 8.7246 14.9729 8.45126C14.5856 8.17793 14.1443 7.99045 13.6787 7.90137L12.5527 7.68701C12.9962 7.42361 13.3636 7.04945 13.6189 6.60124C13.8741 6.15304 14.0085 5.64617 14.0088 5.13037V1.31201C14.0041 0.990053 13.8883 0.679599 13.6812 0.433105C13.4526 0.157715 13.1348 0 12.8159 0H8.42676C8.32963 0 8.23649 0.0385828 8.16781 0.107261C8.09913 0.175939 8.06055 0.269086 8.06055 0.366211V1.69434C8.06022 1.94294 8.13812 2.18534 8.2832 2.38721C8.1403 2.53156 8.06026 2.72656 8.06055 2.92969V5.13086C8.06084 5.64666 8.19521 6.15352 8.45048 6.60173C8.70574 7.04994 9.07313 7.4241 9.5166 7.6875L8.39062 7.90186C7.63112 8.04706 6.94595 8.45239 6.45297 9.04812C5.95999 9.64386 5.69 10.3928 5.68945 11.166V11.3354H2.9873C2.89018 11.3354 2.79703 11.374 2.72835 11.4427C2.65968 11.5114 2.62109 11.6045 2.62109 11.7017V13.1699C2.6213 13.4481 2.71253 13.7185 2.88086 13.9399C2.79928 14.0159 2.73421 14.1079 2.68969 14.2102C2.64517 14.3124 2.62215 14.4227 2.62207 14.5342V16.9678C2.62222 17.5479 2.7776 18.1175 3.0721 18.6174C3.3666 19.1172 3.78948 19.5292 4.29688 19.8105L2.95459 20.0684C2.12377 20.2274 1.37431 20.6709 0.835089 21.3227C0.295869 21.9745 0.000581118 22.7937 0 23.6396V24.6338C0 24.7309 0.0385827 24.8241 0.107261 24.8927C0.175938 24.9614 0.269086 25 0.366211 25C0.463336 25 0.556483 24.9614 0.625161 24.8927C0.693839 24.8241 0.732422 24.7309 0.732422 24.6338V23.6396C0.732972 22.9642 0.96881 22.3101 1.39939 21.7896C1.82998 21.2692 2.4284 20.9151 3.0918 20.7881L4.29688 20.5566V20.5859C4.30414 20.9981 4.47296 21.3909 4.76698 21.6797C5.061 21.9686 5.4567 22.1305 5.8689 22.1305C6.28109 22.1305 6.6768 21.9686 6.97082 21.6797C7.26484 21.3909 7.43365 20.9981 7.44092 20.5859V20.5566L8.64795 20.7866C9.31134 20.9136 9.90977 21.2678 10.3404 21.7882C10.7709 22.3086 11.0068 22.9627 11.0073 23.6382V24.6338C11.0073 24.6819 11.0168 24.7295 11.0352 24.7739C11.0536 24.8184 11.0806 24.8587 11.1146 24.8927C11.1486 24.9267 11.189 24.9537 11.2334 24.9721C11.2778 24.9905 11.3254 25 11.3735 25C11.4216 25 11.4692 24.9905 11.5137 24.9721C11.5581 24.9537 11.5985 24.9267 11.6325 24.8927C11.6665 24.8587 11.6935 24.8184 11.7119 24.7739C11.7303 24.7295 11.7397 24.6819 11.7397 24.6338V23.6396C11.74 23.1441 11.6385 22.6539 11.4414 22.1992C11.6505 21.836 11.9352 21.522 12.2763 21.2785C12.6175 21.035 13.007 20.8677 13.4185 20.7881L14.6274 20.5566V20.5859C14.6347 20.9981 14.8035 21.3909 15.0975 21.6797C15.3916 21.9686 15.7873 22.1305 16.1995 22.1305C16.6117 22.1305 17.0074 21.9686 17.3014 21.6797C17.5954 21.3909 17.7642 20.9981 17.7715 20.5859V20.5566L18.9785 20.7866C19.6422 20.9137 20.2408 21.268 20.6714 21.7887C21.102 22.3095 21.3377 22.964 21.3379 23.6396V24.6338C21.3379 24.7309 21.3765 24.8241 21.4452 24.8927C21.5138 24.9614 21.607 25 21.7041 25C21.8012 25 21.8944 24.9614 21.9631 24.8927C22.0317 24.8241 22.0703 24.7309 22.0703 24.6338V23.6396C22.0697 22.7937 21.7744 21.9745 21.2352 21.3227C20.696 20.6709 19.9465 20.2274 19.1157 20.0684ZM17.4033 9.59229C17.6663 9.59229 17.9234 9.67026 18.142 9.81636C18.3607 9.96246 18.5311 10.1701 18.6317 10.4131C18.7323 10.656 18.7587 10.9234 18.7074 11.1813C18.6561 11.4392 18.5294 11.6761 18.3435 11.862C18.1575 12.048 17.9206 12.1746 17.6627 12.2259C17.4048 12.2772 17.1375 12.2509 16.8945 12.1503C16.6516 12.0496 16.4439 11.8792 16.2978 11.6606C16.1517 11.4419 16.0737 11.1848 16.0737 10.9219C16.0742 10.5694 16.2145 10.2315 16.4637 9.98228C16.713 9.73305 17.0508 9.5928 17.4033 9.59229ZM17.4033 12.9839C17.623 12.9839 17.8413 12.9486 18.0498 12.8794C18.4764 13.3431 18.7141 13.9495 18.7163 14.5796C18.4722 14.6704 18.0415 14.7661 17.6001 14.5718C17.3296 14.4482 17.1035 14.2448 16.9521 13.9888C16.9235 13.9406 16.8841 13.8997 16.8371 13.8691C16.7901 13.8386 16.7367 13.8192 16.681 13.8126C16.6253 13.8059 16.5689 13.8122 16.516 13.8308C16.4631 13.8494 16.4152 13.8799 16.376 13.9199C16.0346 14.2721 15.6 14.5197 15.123 14.6338C14.646 14.748 14.1464 14.7239 13.6826 14.5645C13.6852 13.9825 13.8902 13.4197 14.2625 12.9723C14.6347 12.525 15.1509 12.2211 15.7227 12.1128C15.9128 12.3817 16.1647 12.6011 16.4571 12.7527C16.7495 12.9042 17.074 12.9835 17.4033 12.9839ZM8.79297 0.732422H12.8159C13.04 0.732422 13.2773 1.03027 13.2773 1.31201V2.15771H9.25439C9.13206 2.15759 9.01477 2.10893 8.92826 2.02242C8.84175 1.93592 8.7931 1.81863 8.79297 1.69629V0.732422ZM8.79297 5.13037V2.92969C8.7931 2.91885 8.79746 2.90849 8.80512 2.90083C8.81279 2.89316 8.82315 2.8888 8.83398 2.88867H13.2363C13.2472 2.8888 13.2575 2.89316 13.2652 2.90083C13.2729 2.90849 13.2772 2.91885 13.2773 2.92969V5.13086C13.2768 5.55381 13.1569 5.96801 12.9313 6.32581C12.7058 6.6836 12.3838 6.97044 12.0024 7.15332C11.9831 7.15998 11.9645 7.16848 11.9468 7.17871C11.6055 7.33088 11.2315 7.39528 10.859 7.36607C10.4864 7.33685 10.1271 7.21494 9.81364 7.01142C9.50021 6.80791 9.24265 6.52925 9.06439 6.20081C8.88613 5.87236 8.79283 5.50456 8.79297 5.13086V5.13037ZM11.7598 8.01514V8.40576C11.7598 8.59794 11.6834 8.78225 11.5475 8.91814C11.4116 9.05403 11.2273 9.13037 11.0352 9.13037C10.843 9.13037 10.6587 9.05403 10.5228 8.91814C10.3869 8.78225 10.3105 8.59794 10.3105 8.40576V8.01514C10.7862 8.13494 11.2841 8.13494 11.7598 8.01514ZM3.35352 12.0679H7.83984C8.11133 12.0679 8.38818 12.4097 8.38818 12.7471V13.7236C8.36084 13.7236 8.33252 13.7197 8.3042 13.7197H3.90234C3.75682 13.7196 3.6173 13.6617 3.51441 13.5588C3.41151 13.4559 3.35364 13.3164 3.35352 13.1709V12.0679ZM6.71045 20.5879C6.70516 20.8071 6.61439 21.0155 6.45751 21.1686C6.30063 21.3218 6.09008 21.4075 5.87085 21.4075C5.65162 21.4075 5.44107 21.3218 5.28419 21.1686C5.12731 21.0155 5.03654 20.8071 5.03125 20.5879V20.1074C5.58086 20.2542 6.15937 20.2542 6.70898 20.1074C6.70801 20.1222 6.70801 20.1371 6.70898 20.1519L6.71045 20.5879ZM6.95459 19.2397C6.93421 19.2465 6.91458 19.2554 6.896 19.2661C6.51279 19.4375 6.09281 19.5102 5.6743 19.4777C5.2558 19.4452 4.85209 19.3084 4.49994 19.08C4.1478 18.8515 3.85843 18.5386 3.65819 18.1696C3.45795 17.8007 3.35321 17.3875 3.35352 16.9678V14.5342C3.35428 14.5124 3.36346 14.4918 3.37913 14.4767C3.39479 14.4616 3.41572 14.4531 3.4375 14.4531H8.3042C8.32639 14.4531 8.34768 14.4619 8.36341 14.4776C8.37915 14.4932 8.38805 14.5144 8.38818 14.5366V16.9678C8.38755 17.4428 8.25268 17.908 7.99912 18.3097C7.74556 18.7115 7.38364 19.0333 6.95508 19.2383L6.95459 19.2397ZM14.627 19.813L13.2812 20.0684C12.3811 20.2433 11.5795 20.7499 11.0352 21.4878C10.4927 20.7478 9.69023 20.2407 8.78906 20.0684L7.44482 19.812C7.95277 19.5311 8.37624 19.1193 8.67127 18.6194C8.96629 18.1195 9.12212 17.5497 9.12256 16.9692V12.7466C9.11727 12.3996 8.9926 12.0651 8.76953 11.7993C8.52295 11.5063 8.18359 11.335 7.8418 11.335H6.42578V11.1655C6.42626 10.5627 6.63671 9.97895 7.02095 9.51451C7.40519 9.05007 7.93923 8.73399 8.53125 8.62061L9.58252 8.4209C9.58252 8.8072 9.73598 9.17768 10.0091 9.45083C10.2823 9.72398 10.6528 9.87744 11.0391 9.87744C11.4254 9.87744 11.7958 9.72398 12.069 9.45083C12.3421 9.17768 12.4956 8.8072 12.4956 8.4209L13.5464 8.62109C13.9752 8.70322 14.3763 8.89219 14.7127 9.17052C15.0491 9.44884 15.3098 9.80753 15.4707 10.2134C15.3276 10.6048 15.3061 11.0303 15.4092 11.4341C14.7062 11.6091 14.0823 12.0148 13.6371 12.5863C13.1919 13.1578 12.9513 13.862 12.9536 14.5864V14.6353C12.9538 14.6659 12.9577 14.6964 12.9653 14.7261C12.9574 14.756 12.9535 14.7869 12.9536 14.8179V16.9678C12.9541 17.5482 13.1099 18.118 13.4049 18.6179C13.6999 19.1178 14.1234 19.5296 14.6313 19.8105L14.627 19.813ZM17.041 20.5874C17.0357 20.8066 16.945 21.015 16.7881 21.1681C16.6312 21.3213 16.4206 21.407 16.2014 21.407C15.9822 21.407 15.7716 21.3213 15.6148 21.1681C15.4579 21.015 15.3671 20.8066 15.3618 20.5874V20.1069C15.9114 20.2537 16.4899 20.2537 17.0396 20.1069C17.0386 20.1217 17.0386 20.1366 17.0396 20.1514L17.041 20.5874ZM17.2852 19.2383C17.2647 19.2451 17.2449 19.254 17.2261 19.2646C16.8429 19.436 16.423 19.5087 16.0045 19.4762C15.586 19.4437 15.1824 19.3071 14.8302 19.0786C14.4781 18.8502 14.1887 18.5373 13.9884 18.1685C13.7882 17.7996 13.6834 17.3865 13.6836 16.9668V15.3271C14.1812 15.4587 14.7027 15.472 15.2064 15.366C15.7101 15.26 16.182 15.0377 16.5845 14.7168C16.7847 14.9415 17.0308 15.1206 17.3062 15.2422C17.7523 15.433 18.2496 15.4685 18.7183 15.3428V16.9678C18.7176 17.4428 18.5827 17.908 18.3291 18.3097C18.0756 18.7114 17.7137 19.0333 17.2852 19.2383Z" fill="white"/>
</svg>
