<svg width="25" height="25" viewBox="0 0 25 25" fill="none" xmlns="http://www.w3.org/2000/svg">
<path d="M15.7982 13.8513L15.8588 13.5226H17.4356C17.7593 13.5226 18.0699 13.4068 18.2988 13.2008C18.5278 12.9947 18.6564 12.7153 18.6564 12.4239C18.6564 12.1326 18.5278 11.8531 18.2988 11.6471C18.0699 11.441 17.7593 11.3253 17.4356 11.3253H14.8235C14.5341 11.3246 14.2539 11.4167 14.0331 11.5851C13.8124 11.7536 13.6656 11.9873 13.6191 12.2443L13.1017 15.0549C13.0642 15.2556 13.0895 15.4616 13.1747 15.6501C13.2599 15.8385 13.4016 16.002 13.584 16.1222C13.7664 16.2423 13.9824 16.3145 14.2077 16.3306C14.4331 16.3468 14.659 16.3062 14.8602 16.2134C14.8659 16.2109 14.8787 16.2054 14.8975 16.1978C15.1332 16.1023 15.2892 16.0483 15.7534 16.0483C15.8764 16.0484 15.9982 16.0711 16.1112 16.1149C16.2242 16.1587 16.3262 16.2228 16.4108 16.3033C16.4954 16.3837 16.5609 16.4788 16.6033 16.5828C16.6457 16.6868 16.6642 16.7974 16.6575 16.908C16.6474 17.0723 16.5823 17.2299 16.4708 17.3603C16.3593 17.4906 16.2065 17.5875 16.0326 17.6382C15.8587 17.689 15.6718 17.6912 15.4965 17.6445C15.3212 17.5979 15.1657 17.5045 15.0504 17.3769C14.9495 17.2642 14.8248 17.1707 14.6835 17.1016C14.5423 17.0325 14.3873 16.9891 14.2273 16.9741C14.0674 16.959 13.9058 16.9725 13.7517 17.0138C13.5976 17.0551 13.4541 17.1234 13.3294 17.2148C13.2048 17.3061 13.1014 17.4188 13.0252 17.5462C12.949 17.6736 12.9015 17.8133 12.8855 17.9573C12.8695 18.1012 12.8852 18.2466 12.9318 18.3851C12.9784 18.5236 13.055 18.6524 13.157 18.7642C13.4702 19.1119 13.8659 19.3921 14.315 19.5843C14.7641 19.7765 15.2554 19.8759 15.7527 19.8752C15.7755 19.8752 15.7983 19.875 15.8218 19.8746C16.6663 19.8569 17.4723 19.5535 18.0792 19.0247C18.686 18.496 19.0491 17.7808 19.096 17.0219C19.1215 16.6132 19.0534 16.2042 18.8959 15.8202C18.7385 15.4362 18.495 15.0854 18.1806 14.7896C17.8726 14.4987 17.5033 14.2659 17.0943 14.1048C16.6853 13.9437 16.2447 13.8575 15.7982 13.8513ZM18.2832 16.9839C18.2476 17.5581 17.973 18.0991 17.5139 18.4991C17.0548 18.8992 16.4451 19.1288 15.8062 19.1423C15.7883 19.1426 15.7705 19.1428 15.7527 19.1428C15.3763 19.1433 15.0045 19.0681 14.6646 18.9225C14.3247 18.777 14.0252 18.5649 13.7882 18.3018C13.72 18.2265 13.6879 18.1299 13.6989 18.0333C13.7099 17.9367 13.7631 17.8479 13.8468 17.7866C13.9305 17.7253 14.0378 17.6964 14.1452 17.7063C14.2526 17.7162 14.3512 17.764 14.4193 17.8394C14.6024 18.0419 14.8395 18.1995 15.1086 18.2974C15.3776 18.3952 15.6697 18.4302 15.9578 18.3991C16.2459 18.368 16.5206 18.2718 16.7562 18.1194C16.9919 17.967 17.1808 17.7635 17.3055 17.5277C17.4301 17.2919 17.4864 17.0315 17.4691 16.7709C17.4519 16.5102 17.3615 16.2577 17.2066 16.0369C17.0517 15.8162 16.8372 15.6343 16.5831 15.5082C16.329 15.3821 16.0435 15.316 15.7534 15.3159C15.1392 15.3159 14.8728 15.4046 14.5632 15.53C14.5241 15.5458 14.4991 15.557 14.4896 15.5613C14.4226 15.5923 14.3473 15.6059 14.2721 15.6005C14.197 15.5951 14.125 15.5709 14.0642 15.5308C14.0035 15.4906 13.9564 15.436 13.9282 15.3731C13.9 15.3102 13.8918 15.2415 13.9046 15.1746L14.422 12.3641C14.4375 12.2784 14.4865 12.2005 14.5601 12.1443C14.6337 12.0882 14.7271 12.0575 14.8236 12.0577H17.4356C17.5435 12.0577 17.6471 12.0963 17.7234 12.165C17.7997 12.2337 17.8426 12.3268 17.8426 12.4239C17.8426 12.5211 17.7997 12.6142 17.7234 12.6829C17.6471 12.7516 17.5435 12.7901 17.4356 12.7901H15.5137C15.4173 12.7901 15.324 12.8209 15.2505 12.877C15.177 12.9331 15.128 13.0109 15.1122 13.0965L14.9143 14.1717C14.9042 14.2265 14.9081 14.2827 14.9257 14.3359C14.9433 14.3892 14.9742 14.4381 15.0159 14.4791C15.0577 14.52 15.1092 14.5519 15.1667 14.5722C15.2241 14.5926 15.286 14.6009 15.3475 14.5966C15.4826 14.5874 15.6179 14.583 15.7534 14.5834C16.097 14.5841 16.437 14.6474 16.7527 14.7695C17.0684 14.8916 17.3534 15.07 17.5904 15.2939C17.8284 15.5179 18.0126 15.7834 18.1318 16.0742C18.251 16.3649 18.3025 16.6745 18.2832 16.9839ZM22.9625 1.67354H21.2226V1.11362C21.2222 0.818375 21.0917 0.535316 20.8597 0.326544C20.6277 0.117772 20.3132 0.000336009 19.9851 0L19.7983 0C19.4702 0.000336009 19.1557 0.117772 18.9237 0.326544C18.6917 0.535316 18.5612 0.818375 18.5608 1.11362V1.67354H13.831V1.11362C13.8306 0.818367 13.7001 0.5353 13.4681 0.326527C13.2361 0.117753 12.9215 0.000323087 12.5934 0L12.4066 0C12.0785 0.000336009 11.7639 0.117772 11.5319 0.326544C11.2999 0.535316 11.1694 0.818375 11.1691 1.11362V1.67354H6.4392V1.11362C6.43883 0.818375 6.30833 0.535316 6.07634 0.326544C5.84434 0.117772 5.5298 0.000336009 5.2017 0L5.01489 0C4.6868 0.000336009 4.37225 0.117772 4.14026 0.326544C3.90826 0.535316 3.77776 0.818375 3.77739 1.11362V1.67354H2.03745C1.49727 1.67409 0.979399 1.86744 0.597437 2.21117C0.215475 2.55489 0.000617516 3.02093 0 3.50703V23.1689C0.000603183 23.6544 0.21517 24.1198 0.596626 24.4631C0.978082 24.8064 1.49527 24.9995 2.03473 25H22.9653C23.5047 24.9995 24.0219 24.8064 24.4034 24.4631C24.7848 24.1198 24.9994 23.6544 25 23.1689V3.50703C24.9994 3.02093 24.7845 2.55489 24.4026 2.21117C24.0206 1.86744 23.5027 1.67409 22.9625 1.67354ZM19.3747 1.11362C19.3748 1.01255 19.4195 0.915654 19.4989 0.844187C19.5783 0.772721 19.686 0.732525 19.7983 0.732422H19.9851C20.0974 0.732538 20.2051 0.772738 20.2845 0.844202C20.3639 0.915665 20.4086 1.01256 20.4087 1.11362V1.67354H19.3747V1.11362ZM11.983 1.11362C11.9831 1.01256 12.0278 0.915665 12.1072 0.844202C12.1866 0.772738 12.2943 0.732538 12.4066 0.732422H12.5934C12.7057 0.732538 12.8134 0.772738 12.8928 0.844202C12.9722 0.915665 13.0169 1.01256 13.017 1.11362V1.67354H11.9829L11.983 1.11362ZM4.59128 1.11362C4.59141 1.01256 4.63609 0.915665 4.7155 0.844202C4.79491 0.772738 4.90258 0.732538 5.01489 0.732422H5.2017C5.31402 0.732525 5.4217 0.772721 5.50111 0.844187C5.58053 0.915654 5.6252 1.01255 5.62531 1.11362V1.67354H4.59128V1.11362ZM24.1861 6.90693H20.7056C20.5977 6.90693 20.4942 6.94552 20.4179 7.01419C20.3416 7.08287 20.2987 7.17602 20.2987 7.27314C20.2987 7.37027 20.3416 7.46342 20.4179 7.53209C20.4942 7.60077 20.5977 7.63936 20.7056 7.63936H24.1861V23.1689C24.1857 23.4602 24.057 23.7395 23.8281 23.9454C23.5992 24.1514 23.2889 24.2672 22.9653 24.2676H2.03473C1.71106 24.2672 1.40075 24.1514 1.17188 23.9454C0.943011 23.7395 0.814267 23.4602 0.813894 23.1689V7.63936H19.0778C19.1858 7.63936 19.2893 7.60077 19.3656 7.53209C19.4419 7.46342 19.4848 7.37027 19.4848 7.27314C19.4848 7.17602 19.4419 7.08287 19.3656 7.01419C19.2893 6.94552 19.1858 6.90693 19.0778 6.90693H0.813894V3.50703C0.814267 3.21511 0.943297 2.93524 1.17268 2.72883C1.40206 2.52241 1.71306 2.40629 2.03745 2.40596H3.77739V3.48271C3.77776 3.77796 3.90826 4.06102 4.14026 4.26979C4.37225 4.47857 4.6868 4.596 5.01489 4.59634C5.12282 4.59634 5.22633 4.55775 5.30264 4.48908C5.37896 4.4204 5.42184 4.32725 5.42184 4.23013C5.42184 4.133 5.37896 4.03985 5.30264 3.97118C5.22633 3.9025 5.12282 3.86392 5.01489 3.86392C4.90258 3.8638 4.79491 3.8236 4.7155 3.75214C4.63609 3.68067 4.59141 3.58378 4.59128 3.48271V2.40596H11.169V3.48271C11.1694 3.77796 11.2999 4.06102 11.5319 4.26979C11.7639 4.47857 12.0784 4.596 12.4065 4.59634C12.5144 4.59634 12.6179 4.55775 12.6943 4.48908C12.7706 4.4204 12.8135 4.32725 12.8135 4.23013C12.8135 4.133 12.7706 4.03985 12.6943 3.97118C12.6179 3.9025 12.5144 3.86392 12.4065 3.86392C12.2942 3.8638 12.1865 3.8236 12.1071 3.75214C12.0277 3.68067 11.983 3.58378 11.9829 3.48271V2.40596H18.5608V3.48271C18.5612 3.77795 18.6917 4.06101 18.9236 4.26978C19.1556 4.47855 19.4702 4.59599 19.7982 4.59634C19.9062 4.59634 20.0097 4.55775 20.086 4.48908C20.1623 4.4204 20.2052 4.32725 20.2052 4.23013C20.2052 4.133 20.1623 4.03985 20.086 3.97118C20.0097 3.9025 19.9062 3.86392 19.7982 3.86392C19.6859 3.86381 19.5783 3.82362 19.4988 3.75215C19.4194 3.68068 19.3748 3.58378 19.3746 3.48271V2.40596H22.9625C23.2869 2.40629 23.5979 2.52241 23.8273 2.72883C24.0566 2.93524 24.1857 3.21511 24.1861 3.50703L24.1861 6.90693ZM10.9433 17.6636L9.75615 17.6603C10.0804 17.2453 10.4537 16.7663 10.8716 16.229C11.3478 15.6166 11.6601 15.0312 11.7998 14.4889C11.8091 14.4531 11.8163 14.4166 11.8215 14.38L11.8559 14.138C11.8624 14.0919 11.8657 14.0454 11.8658 13.9988C11.8657 13.3283 11.5883 12.6818 11.0876 12.1852C10.5869 11.6885 9.89881 11.3774 9.1572 11.3122C8.4156 11.2471 7.67359 11.4326 7.07564 11.8327C6.4777 12.2328 6.06662 12.8189 5.92244 13.4768C5.89154 13.6183 5.89192 13.764 5.92358 13.9054C5.95524 14.0469 6.01754 14.1813 6.10693 14.3011C6.19633 14.4208 6.31106 14.5236 6.44458 14.6035C6.5781 14.6833 6.72779 14.7387 6.88511 14.7666C7.04243 14.7944 7.20429 14.794 7.36146 14.7655C7.51863 14.737 7.66803 14.681 7.80112 14.6005C7.93421 14.5201 8.04839 14.4168 8.13714 14.2967C8.22589 14.1765 8.28748 14.0418 8.31838 13.9002C8.34464 13.7823 8.41707 13.6767 8.52249 13.6028C8.62791 13.5288 8.75932 13.4913 8.89285 13.4971C9.02637 13.5029 9.15314 13.5517 9.25012 13.6345C9.3471 13.7173 9.40784 13.8287 9.42131 13.9483L9.40851 14.0382C9.33097 14.2971 9.15034 14.6102 8.87123 14.969L8.56792 15.3588C8.53724 15.3982 8.51549 15.4426 8.50389 15.4896C8.4923 15.5365 8.4911 15.5851 8.50035 15.6324C8.50961 15.6798 8.52914 15.725 8.55784 15.7656C8.58653 15.8062 8.62383 15.8413 8.66759 15.8689C8.71136 15.8965 8.76073 15.9161 8.81291 15.9265C8.86508 15.9369 8.91902 15.938 8.97166 15.9297C9.0243 15.9214 9.07459 15.9038 9.11968 15.878C9.16477 15.8521 9.20377 15.8186 9.23444 15.7792L9.53802 15.389C9.88116 14.9478 10.105 14.547 10.2034 14.1979C10.2074 14.1836 10.2105 14.1691 10.2126 14.1544L10.2337 14.0056C10.2367 13.9847 10.2376 13.9637 10.2366 13.9427C10.2212 13.6412 10.0838 13.3553 9.85015 13.1388C9.61652 12.9223 9.30291 12.7904 8.96853 12.7678C8.63415 12.7452 8.30215 12.8335 8.03522 13.0162C7.76829 13.1988 7.58492 13.4631 7.51973 13.7591C7.49893 13.8544 7.43691 13.9384 7.34731 13.9925C7.25771 14.0467 7.14788 14.0666 7.04197 14.0479C6.93607 14.0291 6.84276 13.9733 6.78258 13.8927C6.7224 13.8121 6.70028 13.7132 6.72108 13.6179C6.82631 13.1386 7.12594 12.7117 7.56167 12.4203C7.9974 12.1288 8.53804 11.9937 9.07837 12.0413C9.6187 12.0888 10.12 12.3155 10.4848 12.6774C10.8496 13.0392 11.0517 13.5102 11.0519 13.9988C11.0519 14.0143 11.0507 14.0298 11.0486 14.0453L11.0142 14.2872C11.0125 14.2994 11.01 14.3115 11.0069 14.3235C10.8908 14.7741 10.621 15.2739 10.2048 15.809C9.68491 16.4779 9.16362 17.146 8.64095 17.8132C8.59802 17.8679 8.57261 17.9322 8.56747 17.9991C8.56234 18.0659 8.57769 18.1328 8.61185 18.1923C8.64601 18.2518 8.69766 18.3018 8.76119 18.3368C8.82472 18.3717 8.89769 18.3903 8.97215 18.3905L10.9409 18.396C11.0488 18.3963 11.1522 18.4352 11.2282 18.5041C11.3043 18.573 11.3469 18.6662 11.3465 18.7634C11.3462 18.8605 11.303 18.9535 11.2264 19.022C11.1499 19.0904 11.0462 19.1287 10.9383 19.1284L7.39553 19.1186C7.31947 19.1184 7.24499 19.099 7.18055 19.0626C7.11611 19.0263 7.06429 18.9744 7.03097 18.9128C6.99765 18.8513 6.98416 18.7826 6.99203 18.7145C6.9999 18.6464 7.02882 18.5817 7.07551 18.5276C7.09699 18.502 7.44089 18.0746 8.32022 16.9513C8.35126 16.912 8.37336 16.8676 8.38527 16.8206C8.39717 16.7736 8.39864 16.7249 8.38959 16.6774C8.38054 16.6298 8.36116 16.5844 8.33254 16.5436C8.30392 16.5029 8.26664 16.4676 8.22284 16.4398C8.17903 16.412 8.12957 16.3923 8.07728 16.3818C8.02498 16.3713 7.9709 16.3702 7.91813 16.3785C7.86535 16.3868 7.81493 16.4045 7.76974 16.4304C7.72456 16.4563 7.68551 16.49 7.65484 16.5295C6.74544 17.6912 6.44517 18.0625 6.42488 18.0875C6.28746 18.2502 6.20319 18.4442 6.18152 18.6476C6.15986 18.851 6.20167 19.0558 6.30225 19.239C6.40283 19.4222 6.5582 19.5766 6.75089 19.6847C6.94358 19.7928 7.16596 19.8504 7.39303 19.851L10.9396 19.8608C11.2634 19.8613 11.5741 19.746 11.8034 19.5402C12.0327 19.3345 12.1618 19.0553 12.1623 18.7639C12.1628 18.4725 12.0347 18.1929 11.8061 17.9865C11.5775 17.7802 11.2671 17.664 10.9433 17.6636Z" fill="white" fill-opacity="0.7"/>
</svg>
