<svg width="25" height="22" viewBox="0 0 25 22" fill="none" xmlns="http://www.w3.org/2000/svg">
<path d="M1.38164 21.3594C1.44463 21.4939 1.54467 21.6077 1.67004 21.6874C1.7954 21.7671 1.9409 21.8094 2.08945 21.8094C4.33164 21.8094 6.22852 21.2641 8.3832 19.9938C9.42852 20.1594 11.4926 20.3641 12.3988 20.3641C19.2395 20.3641 24.8035 15.7969 24.8035 10.1813C24.8035 4.56563 19.2395 0 12.3988 0C5.5582 0 -0.00585938 4.56563 -0.00585938 10.1813C-0.00585938 12.8281 1.2707 15.3859 3.51758 17.2812C2.99896 18.4534 2.31663 19.5461 1.49102 20.5266C1.29727 20.7609 1.25352 21.0859 1.38164 21.3594ZM1.55664 10.1813C1.55664 5.42813 6.4207 1.56094 12.3988 1.56094C18.377 1.56094 23.241 5.42813 23.241 10.1813C23.241 14.9344 18.377 18.8016 12.3988 18.8016C11.502 18.8016 9.16758 18.5609 8.37852 18.4078C8.18761 18.3735 7.99075 18.409 7.82383 18.5078C6.36758 19.3984 5.09727 19.9078 3.73789 20.1234C4.32035 19.2438 4.80748 18.3047 5.19102 17.3219C5.25309 17.1636 5.26164 16.9893 5.21537 16.8256C5.1691 16.662 5.07055 16.518 4.93477 16.4156C2.75508 14.7656 1.55664 12.55 1.55664 10.1813Z" fill="white" fill-opacity="0.7"/>
</svg>
