<svg width="26" height="26" viewBox="0 0 26 26" fill="none" xmlns="http://www.w3.org/2000/svg">
<path d="M23.625 3.92067H11.4812L10.7812 2.22214C10.6275 1.84951 10.3877 1.53533 10.0893 1.31557C9.79083 1.09581 9.44583 0.979336 9.09375 0.979492H2.375C1.87772 0.979492 1.40081 1.2119 1.04917 1.62558C0.697544 2.03926 0.5 2.60034 0.5 3.18537V23.7736C0.5 24.3586 0.697544 24.9197 1.04917 25.3334C1.40081 25.7471 1.87772 25.9795 2.375 25.9795H23.625C24.1223 25.9795 24.5992 25.7471 24.9508 25.3334C25.3025 24.9197 25.5 24.3586 25.5 23.7736V6.12655C25.5 5.54151 25.3025 4.98044 24.9508 4.56676C24.5992 4.15307 24.1223 3.92067 23.625 3.92067ZM24.25 23.7736C24.25 23.9686 24.1842 24.1556 24.0669 24.2935C23.9497 24.4314 23.7908 24.5089 23.625 24.5089H2.375C2.20924 24.5089 2.05027 24.4314 1.93306 24.2935C1.81585 24.1556 1.75 23.9686 1.75 23.7736V3.18537C1.75 2.99036 1.81585 2.80334 1.93306 2.66544C2.05027 2.52755 2.20924 2.45008 2.375 2.45008H9.09375C9.21089 2.4498 9.32573 2.48826 9.42519 2.56107C9.52465 2.63387 9.60471 2.73809 9.65625 2.86185L11.4 7.08979C11.5537 7.46242 11.7936 7.77659 12.092 7.99636C12.3904 8.21612 12.7354 8.33259 13.0875 8.33243H22.375C22.5408 8.33243 22.6997 8.25497 22.8169 8.11707C22.9342 7.97918 23 7.79215 23 7.59714C23 7.40213 22.9342 7.2151 22.8169 7.07721C22.6997 6.93931 22.5408 6.86185 22.375 6.86185H13.0875C12.9704 6.86212 12.8555 6.82366 12.7561 6.75086C12.6566 6.67805 12.5765 6.57383 12.525 6.45008L12.0875 5.39126H23.625C23.7908 5.39126 23.9497 5.46873 24.0669 5.60662C24.1842 5.74451 24.25 5.93154 24.25 6.12655V23.7736Z" fill="white" fill-opacity="0.7"/>
</svg>
