<svg width="20" height="21" viewBox="0 0 20 21" fill="none" xmlns="http://www.w3.org/2000/svg">
<path d="M8.75 7.54163C8.23303 7.54163 7.8125 7.96216 7.8125 8.47913V9.72363C7.84478 10.9596 9.65528 10.9597 9.6875 9.72361L9.6875 9.32141C13.1198 8.5056 12.2046 3.77497 9.06248 3.79167C7.5116 3.79163 6.25 5.05322 6.25 6.60413C6.28303 7.8406 8.09244 7.84006 8.125 6.6041C8.125 6.08716 8.54553 5.66663 9.0625 5.66663C9.57947 5.66663 10 6.08716 10 6.60413C10 7.06769 9.85138 7.54163 8.75 7.54163ZM9.0625 5.04163C8.20099 5.04163 7.5 5.74262 7.5 6.60413C7.5 6.77655 7.35992 6.91663 7.1875 6.91663C7.01508 6.91663 6.875 6.77655 6.875 6.60413C6.875 5.39807 7.85645 4.41663 9.0625 4.41663C10.2686 4.41663 11.25 5.39807 11.25 6.60413C11.25 7.04175 11.1115 8.49042 9.32983 8.75165C9.17633 8.77423 9.0625 8.90576 9.0625 9.06079V9.72363C9.06083 10.1309 8.43944 10.1333 8.4375 9.72361L8.4375 8.47913C8.4375 8.3067 8.57758 8.16663 8.75 8.16663C10.2997 8.16663 10.625 7.31702 10.625 6.60413C10.625 5.74262 9.92401 5.04163 9.0625 5.04163ZM8.75 10.9791C7.5138 11.0115 7.51404 12.8219 8.75003 12.8541C9.9862 12.8217 9.98596 11.0113 8.75 10.9791ZM8.75 12.2291C8.3414 12.2271 8.34143 11.6061 8.75002 11.6041C9.1586 11.6061 9.15857 12.2272 8.75 12.2291Z" fill="white"/>
<path d="M9.07196 14.1041H6.25C6.16699 14.1041 6.08765 14.1371 6.02905 14.1957L4.6875 15.5372V13.9885C4.6875 13.8676 4.61792 13.7578 4.50867 13.7062C3.09875 13.0381 2.1875 11.5999 2.1875 10.0416V6.91663C2.1875 4.67664 4.01001 2.85413 6.25 2.85413H11.875C14.115 2.85413 15.9375 4.67664 15.9375 6.91663V10.0416C15.9108 10.2597 15.9482 10.5168 16.2137 10.5433C16.4937 10.5708 16.5936 10.2761 16.5625 10.0416L16.5625 6.91663C16.5625 4.33179 14.4598 2.22913 11.875 2.22913H6.25C3.66516 2.22913 1.5625 4.33179 1.5625 6.91663V10.0416C1.5625 11.7735 2.53754 13.3769 4.0625 14.1813V16.2916C4.05376 16.5615 4.41032 16.7102 4.59595 16.5126L6.37939 14.7291H9.07196C9.48047 14.7276 9.48079 14.1057 9.07196 14.1041Z" fill="white"/>
<path d="M18.4248 18.7019L17.8748 16.8684C19.5356 14.0392 17.3427 10.2974 14.0628 10.3542C11.6505 10.3541 9.68789 12.3167 9.68789 14.7291C9.64133 18.224 13.7725 20.3637 16.5904 18.2963L17.9737 19.0647C18.2062 19.205 18.5121 18.9597 18.4248 18.7019ZM17.237 16.9178L17.6051 18.1452L16.717 17.6518C16.6078 17.5914 16.4716 17.6014 16.3725 17.6789C15.705 18.2023 14.9064 18.4791 14.0629 18.4791C9.08897 18.2739 9.08851 11.1845 14.0629 10.9791C16.1308 10.9791 17.8129 12.6612 17.8129 14.7291C17.8129 15.409 17.6249 16.0789 17.2691 16.6661C17.2233 16.7417 17.2117 16.8333 17.237 16.9178Z" fill="white"/>
<path d="M12.0964 14.5073C11.7986 14.2287 11.3707 14.6495 11.6526 14.951C11.9435 15.2353 12.3793 14.8019 12.0964 14.5073ZM14.2839 14.5073C13.9897 14.2266 13.558 14.6547 13.8402 14.951C14.1312 15.2364 14.5669 14.8008 14.2839 14.5073ZM16.4213 14.4697C16.1151 14.2587 15.7657 14.6924 16.0276 14.951C16.362 15.2559 16.7915 14.7292 16.4213 14.4697Z" fill="white"/>
</svg>
