<svg width="26" height="26" viewBox="0 0 26 26" fill="none" xmlns="http://www.w3.org/2000/svg">
<g clip-path="url(#clip0_1027_1812)">
<path d="M24.9891 12.9897C24.9891 6.36797 19.6212 1 12.9995 1C6.37773 1 1.00977 6.36797 1.00977 12.9897C1.00977 19.6114 6.37773 24.9794 12.9995 24.9794C19.6212 24.9794 24.9891 19.6114 24.9891 12.9897Z" stroke="white" stroke-opacity="0.7" stroke-width="2" stroke-miterlimit="10"/>
<path d="M18.5958 8.21436H7.40119C6.97359 8.21436 6.62695 8.56099 6.62695 8.98859V18.7143C6.62695 19.1419 6.97359 19.4885 7.40119 19.4885H18.5958C19.0234 19.4885 19.3701 19.1419 19.3701 18.7143V8.98859C19.3701 8.56099 19.0234 8.21436 18.5958 8.21436Z" stroke="white" stroke-opacity="0.7" stroke-width="2" stroke-linecap="round" stroke-linejoin="round"/>
<path d="M8.60156 6.74023V9.25916M13.003 6.74023V9.25916M17.4045 6.74023V9.25916M9.7311 13.7561L11.969 15.9993L16.2697 11.6985" stroke="white" stroke-opacity="0.7" stroke-width="2" stroke-linecap="round" stroke-linejoin="round"/>
</g>
<defs>
<clipPath id="clip0_1027_1812">
<rect width="25.9794" height="25.9794" fill="white" transform="translate(0.00976562)"/>
</clipPath>
</defs>
</svg>
