<svg width="20" height="21" viewBox="0 0 20 21" fill="none" xmlns="http://www.w3.org/2000/svg">
<path d="M10.0763 1.84491C10.1737 1.90398 10.249 1.98714 10.3275 2.06843L11.7793 3.52657L9.15871 6.36025C9.04528 6.48498 9.04641 6.57494 8.89852 6.57537L7.2511 6.57552L5.52344 6.56795C5.58484 6.52123 5.63926 6.43693 5.69422 6.37919L9.67297 2.26009C9.80067 2.12103 9.927 1.9613 10.0763 1.84491ZM14.3317 1.85314L14.3751 1.84753C14.4386 1.86887 14.4909 1.90668 14.5403 1.95093L17.3159 4.62548C17.4795 4.78326 17.6639 4.93697 17.7949 5.12326C17.7139 5.27872 17.5524 5.41103 17.4296 5.53455L16.6047 6.37865C16.435 6.55537 16.4827 6.57435 16.229 6.57478L13.3815 6.57572L9.90043 6.57337C9.94676 6.53638 10.1157 6.32294 10.1843 6.25146L11.4341 4.89912L14.0542 2.12411C14.1382 2.03097 14.2274 1.92361 14.3317 1.85314Z" fill="white"/>
<path d="M14.8017 3.57111C16.2112 3.49648 16.3435 5.64403 14.8969 5.77418C14.5991 5.77254 14.3113 5.6834 14.0855 5.48481C13.3864 4.86996 13.7283 3.63289 14.8017 3.57111Z" fill="black"/>
<path d="M14.7918 4.25281C15.3625 4.22592 15.4009 4.94736 14.8785 5.06049C14.3355 5.10826 14.1873 4.36702 14.7918 4.25281Z" fill="white"/>
<path d="M17.4257 11.4524L15.2168 11.4492C15.0647 11.4493 14.9145 11.4445 14.7652 11.4801C14.2363 11.606 13.8551 12.1037 13.8532 12.6444L13.8537 13.2766C13.8538 13.464 13.8453 13.6565 13.8784 13.8416C13.961 14.3027 14.3324 14.6818 14.7935 14.7718C14.9678 14.8057 15.1611 14.7885 15.3385 14.7875L19.094 14.7865C19.1082 14.9711 19.0985 15.1627 19.0987 15.3482L19.0985 18.557C19.0813 19.0014 18.6844 19.3451 18.2456 19.3611L1.74407 19.3622C1.35211 19.3507 0.947309 19.0236 0.933594 18.6148L0.934086 8.5375C0.931961 7.85761 0.945434 7.25714 1.78777 7.25574L16.7691 7.25632L17.3761 7.26121L17.4257 11.4524Z" fill="url(#paint0_linear_829_1037)"/>
<path d="M7.62161 15.48L7.89516 15.4733C8.22501 15.4932 8.35837 15.8653 8.06157 16.1284C7.97868 16.2018 7.82157 16.1733 7.71872 16.1736L7.1777 16.1745L7.17625 16.1761C7.01161 16.1759 6.85856 16.1895 6.72372 16.0765C6.49887 15.8879 6.60426 15.559 6.88356 15.4897C6.96235 15.4701 7.06594 15.4814 7.14809 15.4816L7.62161 15.48ZM2.79819 15.4803C2.95324 15.4754 3.14074 15.4378 3.26579 15.5491C3.48195 15.7416 3.41028 16.0933 3.11673 16.1628C3.02866 16.1836 2.91551 16.1726 2.82491 16.1727L2.27168 16.1741C2.10171 16.14 1.92941 16.2026 1.78289 16.0719C1.55918 15.8723 1.72401 15.5441 1.99213 15.4897C2.08081 15.4716 2.18753 15.482 2.27797 15.482L2.79819 15.4803ZM7.81204 16.6538C7.87672 16.647 7.99208 16.6396 8.0493 16.6698L8.06157 16.6769C8.28071 16.8018 8.37536 17.0514 8.18395 17.2447C8.0468 17.3831 7.82965 17.3538 7.6536 17.3544L7.07211 17.3556C6.40164 17.3621 6.51907 16.7551 6.88579 16.6615C6.97481 16.6388 7.0952 16.6536 7.18864 16.6536L7.81204 16.6538ZM4.47449 15.4835L5.11114 15.482C5.24407 15.482 5.427 15.4605 5.55407 15.496L5.56645 15.4997C5.97692 15.6143 5.95512 16.096 5.58739 16.1704L5.52493 16.181L4.60578 16.177C3.94668 16.1793 4.06121 15.563 4.47449 15.4835ZM4.62602 16.655L5.26039 16.6536C5.36414 16.6537 5.52172 16.6336 5.61692 16.6723L5.62871 16.6774C5.99606 16.8315 5.92961 17.3485 5.52758 17.3606L5.38184 17.3618L4.85707 17.3557C4.70375 17.3554 4.5327 17.3696 4.38289 17.3375C4.10387 17.2777 4.02989 16.9841 4.21164 16.7822C4.32313 16.6584 4.47196 16.6626 4.62602 16.655ZM2.14347 16.6547L2.77629 16.6544C3.02713 16.655 3.3842 16.6383 3.39013 17.0177C3.39547 17.3582 3.13869 17.357 2.89311 17.3556L2.22689 17.3567C2.018 17.3579 1.64344 17.3928 1.63035 17.0651C1.61719 16.7357 1.88232 16.6675 2.14347 16.6547ZM13.6802 17.9206C14.1124 17.8969 14.3356 18.3527 13.9392 18.5817L13.9258 18.5892C13.8617 18.6266 13.7852 18.6209 13.7131 18.6217L12.6834 18.6229C12.5626 18.6275 12.4258 18.6294 12.3306 18.5426C12.1788 18.4042 12.1844 18.1933 12.3284 18.0506C12.4981 17.8822 12.7566 17.9248 12.9731 17.9242L13.6802 17.9206ZM9.88716 17.9247L10.6337 17.9229C10.7955 17.9229 10.9725 17.9083 11.1329 17.929C11.5946 17.9886 11.5673 18.5534 11.1433 18.6237L10.2737 18.623C10.1323 18.6229 9.96688 18.6381 9.82813 18.6125L9.8145 18.6099C9.43622 18.5447 9.49067 18.04 9.83333 17.9387L9.88716 17.9247ZM16.3377 17.9231L16.4549 17.9192C16.7625 17.935 16.9377 18.3271 16.6394 18.5566L16.626 18.5666C16.4984 18.6629 16.2545 18.6222 16.1056 18.6224L15.3506 18.6227C15.1277 18.6153 14.8593 18.5816 14.8516 18.2982C14.8408 17.9038 15.3494 17.924 15.6153 17.9238L16.3377 17.9231ZM6.09098 9.23649C6.17918 9.22754 6.28618 9.21254 6.37305 9.22762L6.38676 9.23031C6.6727 9.28352 6.64157 9.62449 6.64184 9.83985L6.65547 12.5563C6.67098 13.0077 6.21145 12.94 5.90711 12.939L2.12162 12.9396C2.10361 12.9491 2.07766 12.9458 2.05742 12.9463C1.82402 12.9515 1.55611 12.9121 1.541 12.6139L1.53711 9.66918C1.53717 9.50766 1.55717 9.35172 1.72386 9.27235L1.73613 9.26668C1.86575 9.20266 2.14127 9.24063 2.28647 9.24047L6.09098 9.23649Z" fill="black"/>
<path d="M2.22809 9.91522L5.9596 9.92592L5.96031 12.2558L2.22461 12.2505L2.22809 9.91522Z" fill="white"/>
<path d="M9.83364 7.90709C10.5061 7.89236 11.1727 8.10533 11.6765 8.55787C13.4197 10.1236 12.4104 13.0743 9.98485 13.1955C9.31489 13.2053 8.61715 12.9583 8.1118 12.5174C7.0052 11.5522 7.00434 9.8199 7.9477 8.74416C8.43645 8.18681 9.11363 7.95505 9.83364 7.90709Z" fill="black"/>
<path d="M9.85768 9.93807C10.2135 9.89873 10.1246 9.96588 10.3096 10.1827L10.1578 10.1606C10.0414 10.1119 9.75814 10.1635 9.67061 10.0882C9.66131 10.0056 9.67334 9.96346 9.75998 9.95002L9.85768 9.93807Z" fill="white"/>
<path d="M10.2188 8.62469C11.4066 8.70012 12.1324 10.1116 11.748 11.2037C11.5723 11.7033 11.1922 12.0908 10.7186 12.3169C10.5759 12.3837 10.4315 12.417 10.2869 12.4718L10.2901 11.94C10.2831 11.7029 10.2545 11.815 10.4514 11.7007C11.0311 11.364 10.9482 10.5458 10.402 10.2327C11.0847 10.2168 10.8336 9.4145 10.4044 9.28903C10.3582 9.27552 10.3086 9.27012 10.2614 9.25915C10.2623 9.15591 10.2663 9.05079 10.2587 8.94782L10.2188 8.62469Z" fill="white"/>
<path d="M9.57139 8.63884L9.60025 8.63599C9.60912 8.64755 9.58771 9.16204 9.58971 9.22157L9.5792 9.2247C9.09291 9.3813 8.87611 9.86353 9.03728 10.3407C9.28732 11.081 10.4823 10.6109 10.1422 11.1076C10.0401 11.1669 9.92018 11.144 9.81029 11.1224C9.70037 11.1008 9.68896 11.0033 9.63369 10.9245C9.39654 10.5869 8.69834 10.9559 9.10338 11.5114C9.21736 11.6677 9.3985 11.7459 9.58463 11.774L9.58295 11.9411L9.58596 12.4824C9.55268 12.4635 9.51709 12.4608 9.48068 12.4508L9.28006 12.3899C8.39662 12.0999 7.85666 11.2875 7.95482 10.3521L7.95678 10.3346C8.05017 9.46208 8.69935 8.76802 9.57139 8.63884Z" fill="white"/>
<defs>
<linearGradient id="paint0_linear_829_1037" x1="11.1326" y1="21.092" x2="7.41353" y2="5.85246" gradientUnits="userSpaceOnUse">
<stop stop-color="white"/>
<stop offset="1" stop-color="#F6CFFF"/>
</linearGradient>
</defs>
</svg>
