<svg width="19" height="20" viewBox="0 0 19 20" fill="none" xmlns="http://www.w3.org/2000/svg">
<path d="M17.5875 8.55478L14.5625 11.5798C14.3625 11.7798 14.0625 11.7798 13.8625 11.5798C13.6625 11.3798 13.6625 11.0798 13.8625 10.8798L16.8875 7.85478C18.3625 6.37979 18.3625 3.97978 16.8875 2.50479C16.1625 1.77979 15.2375 1.40479 14.2125 1.40479C13.2125 1.40479 12.2625 1.80479 11.5375 2.50479L8.5125 5.52979C7.0375 7.00479 7.0375 9.40479 8.5125 10.8798C8.8625 11.2298 9.2875 11.5298 9.7625 11.7048C10.0125 11.8048 10.1375 12.1048 10.0375 12.3548C9.8125 12.8798 9.2375 12.5798 9.3875 12.6298C8.7875 12.3798 8.2625 12.0298 7.8125 11.5798C5.9375 9.72978 5.9375 6.67979 7.8125 4.82979L10.8375 1.80479C11.7375 0.904785 12.9375 0.404785 14.2125 0.404785C15.4875 0.404785 16.6875 0.904785 17.5875 1.80479C19.4625 3.65479 19.4625 6.70478 17.5875 8.55478ZM9.5875 7.17978C9.3375 7.07978 9.0375 7.20479 8.9375 7.45479C8.8375 7.70479 8.9625 8.00479 9.2125 8.10478C9.6875 8.30478 10.1125 8.57978 10.4625 8.92978C11.9375 10.4048 11.9375 12.8048 10.4625 14.2798L7.4375 17.3048C6.7125 18.0298 5.7875 18.4048 4.7625 18.4048C3.7625 18.4048 2.8125 18.0048 2.0875 17.3048C0.6125 15.8298 0.6125 13.4298 2.0875 11.9548L5.1125 8.92978C5.3125 8.72978 5.3125 8.42978 5.1125 8.22978C4.9125 8.02979 4.6125 8.02979 4.4125 8.22978L1.3875 11.2548C-0.4625 13.1048 -0.4625 16.1548 1.3875 18.0048C2.2875 18.9048 3.4875 19.4048 4.7625 19.4048C6.0375 19.4048 7.2375 18.9048 8.1375 18.0048L11.1625 14.9798C13.0375 13.1298 13.0375 10.0798 11.1625 8.22978C10.7125 7.77979 10.1875 7.42978 9.5875 7.17978Z" fill="white"/>
</svg>
