<svg width="25" height="25" viewBox="0 0 25 25" fill="none" xmlns="http://www.w3.org/2000/svg">
<path fill-rule="evenodd" clip-rule="evenodd" d="M12.4952 0.784363C7.76892 0.784363 3.90975 4.65057 3.90975 9.3761V12.5025C3.90975 14.9055 2.96839 16.9366 2.58794 17.6975C1.82392 19.2287 2.97854 21.088 4.68783 21.088H8.67044C9.03292 22.8676 10.6156 24.2175 12.4984 24.2175C14.3811 24.2175 15.9638 22.8676 16.3263 21.088H20.3089C22.0182 21.088 23.165 19.2256 22.4025 17.6975C22.0244 16.9398 21.0885 14.9063 21.0885 12.5025V9.3761C21.0885 4.64979 17.2216 0.784363 12.4952 0.784363ZM12.4952 2.34053C16.37 2.34053 19.5308 5.50052 19.5308 9.3761V12.5025C19.5308 15.307 20.5948 17.5741 21.0073 18.4006C21.2807 18.949 20.9206 19.5318 20.3089 19.5318H4.68783C4.07146 19.5318 3.70976 18.9514 3.98474 18.4014C4.39644 17.5757 5.46592 15.3078 5.46592 12.5025V9.3761C5.46592 5.49974 8.61966 2.34053 12.4952 2.34053ZM12.4952 3.90295C9.47977 3.90295 7.02833 6.35985 7.02833 9.3761C7.02833 9.58329 7.11064 9.782 7.25715 9.9285C7.40365 10.075 7.60235 10.1573 7.80954 10.1573C8.01673 10.1573 8.21544 10.075 8.36194 9.9285C8.50845 9.782 8.59075 9.58329 8.59075 9.3761C8.58712 8.86213 8.6856 8.35255 8.88048 7.87693C9.07535 7.40132 9.36274 6.96914 9.72597 6.60547C10.0892 6.24181 10.521 5.9539 10.9964 5.75846C11.4718 5.56301 11.9813 5.46392 12.4952 5.46693C12.7026 5.46693 12.9015 5.38454 13.0482 5.23789C13.1948 5.09124 13.2772 4.89234 13.2772 4.68494C13.2772 4.47754 13.1948 4.27864 13.0482 4.13199C12.9015 3.98534 12.7026 3.90295 12.4952 3.90295ZM7.81111 11.7182C7.60392 11.7182 7.40521 11.8005 7.25871 11.947C7.1122 12.0935 7.0299 12.2922 7.0299 12.4994C7.0299 12.7066 7.1122 12.9053 7.25871 13.0518C7.40521 13.1983 7.60392 13.2806 7.81111 13.2806C8.0183 13.2806 8.217 13.1983 8.3635 13.0518C8.51001 12.9053 8.59232 12.7066 8.59232 12.4994C8.59232 12.2922 8.51001 12.0935 8.3635 11.947C8.217 11.8005 8.0183 11.7182 7.81111 11.7182ZM10.2954 21.088H14.7014C14.5436 21.5464 14.2463 21.944 13.8513 22.225C13.4562 22.506 12.9832 22.6564 12.4984 22.6551C12.0136 22.6564 11.5405 22.506 11.1454 22.225C10.7504 21.944 10.4531 21.5464 10.2954 21.088Z" fill="white"/>
</svg>
