<svg width="28" height="27" viewBox="0 0 28 27" fill="none" xmlns="http://www.w3.org/2000/svg">
<path d="M17.2912 18.9475C17.2078 18.9481 17.1253 18.9307 17.0504 18.8965L13.9996 17.5559L10.9487 18.8965C10.8578 18.9369 10.7569 18.9538 10.6566 18.9453C10.5562 18.9369 10.4602 18.9035 10.3786 18.8487C10.2976 18.7935 10.234 18.7191 10.1946 18.6333C10.1552 18.5475 10.1414 18.4534 10.1546 18.3609L10.5925 15.2503L8.26627 12.9716C8.19713 12.9037 8.14899 12.8197 8.12692 12.7285C8.10484 12.6373 8.10964 12.5423 8.14082 12.4534C8.172 12.3645 8.2284 12.2851 8.30409 12.2235C8.37977 12.1619 8.47195 12.1203 8.57091 12.1032L11.8928 11.5281L13.5079 8.77211C13.5608 8.69568 13.6336 8.63282 13.7195 8.58929C13.8054 8.54576 13.9017 8.52295 13.9996 8.52295C14.0974 8.52295 14.1937 8.54576 14.2796 8.58929C14.3655 8.63282 14.4383 8.69568 14.4912 8.77211L16.1063 11.5281L19.4282 12.1032C19.5272 12.1203 19.6193 12.1619 19.695 12.2235C19.7707 12.2851 19.8271 12.3645 19.8583 12.4534C19.8895 12.5423 19.8943 12.6373 19.8722 12.7285C19.8501 12.8197 19.802 12.9037 19.7328 12.9716L17.4088 15.2503L17.8468 18.3609C17.857 18.4346 17.8501 18.5094 17.8266 18.5804C17.8031 18.6514 17.7635 18.7169 17.7104 18.7724C17.6573 18.828 17.5921 18.8724 17.519 18.9026C17.4459 18.9328 17.3667 18.9481 17.2868 18.9475H17.2912ZM13.9996 16.4515C14.0829 16.4514 14.1653 16.4688 14.2404 16.5024L16.6024 17.5424L16.2664 15.1327C16.2556 15.0563 16.2633 14.9785 16.2889 14.9051C16.3144 14.8317 16.3573 14.7645 16.4143 14.7084L18.2141 12.9404L15.6381 12.4943C15.5565 12.4801 15.4792 12.4492 15.412 12.4039C15.3448 12.3586 15.2893 12.2999 15.2495 12.2322L13.9996 10.1085L12.7485 12.2426C12.7087 12.3103 12.6532 12.369 12.586 12.4143C12.5188 12.4596 12.4415 12.4905 12.3599 12.5047L9.78387 12.9508L11.5837 14.7188C11.6407 14.7749 11.6835 14.8421 11.7091 14.9155C11.7347 14.9889 11.7423 15.0667 11.7316 15.1431L11.3956 17.5528L13.7576 16.5128C13.8324 16.4765 13.9152 16.4566 13.9996 16.4546V16.4515Z" fill="#7B5384"/>
<path d="M4.42395 16.62C4.34387 16.6206 4.26456 16.6053 4.1914 16.5751C4.11824 16.5448 4.05291 16.5003 3.99983 16.4446C3.94675 16.389 3.90716 16.3233 3.88372 16.2522C3.86028 16.1811 3.85354 16.1062 3.86395 16.0324L4.20891 13.5947L2.39339 11.81C2.32427 11.7421 2.2761 11.6582 2.25396 11.5671C2.23182 11.476 2.23653 11.381 2.26759 11.2922C2.29864 11.2033 2.3549 11.1239 2.43045 11.0622C2.50599 11.0005 2.59804 10.9588 2.69691 10.9416L5.30203 10.484L6.56315 8.32393C6.61136 8.24167 6.6826 8.17303 6.76934 8.12525C6.85608 8.07748 6.9551 8.05234 7.05595 8.05249C7.1565 8.05242 7.25522 8.07749 7.34173 8.12507C7.42825 8.17265 7.49937 8.24098 7.54763 8.32289L8.72363 10.3301C8.79478 10.4512 8.8112 10.5935 8.7693 10.7259C8.7274 10.8582 8.6306 10.9697 8.50019 11.0357C8.36979 11.1018 8.21647 11.117 8.07396 11.0781C7.93145 11.0392 7.81142 10.9493 7.74027 10.8283L7.05595 9.66241L6.15995 11.2016C6.12018 11.2696 6.06454 11.3286 5.99711 11.3741C5.92968 11.4196 5.85216 11.4506 5.77019 11.4647L3.91323 11.7882L5.21131 13.0611C5.26866 13.1173 5.31179 13.1846 5.33756 13.2582C5.36333 13.3318 5.37109 13.4098 5.36027 13.4865L5.11387 15.2202L6.81403 14.4683C6.88925 14.435 6.97152 14.4177 7.05483 14.4177C7.13815 14.4177 7.22041 14.435 7.29563 14.4683L8.95323 15.1963C9.07472 15.2618 9.16521 15.3674 9.20676 15.4921C9.24831 15.6167 9.23788 15.7513 9.17753 15.8691C9.11718 15.987 9.01133 16.0794 8.88098 16.1282C8.75064 16.1769 8.60532 16.1784 8.47387 16.1323L7.05707 15.5083L4.66587 16.5711C4.59017 16.604 4.50751 16.6207 4.42395 16.62ZM23.5759 16.62C23.4922 16.62 23.4096 16.6026 23.334 16.5691L20.944 15.5135L19.5272 16.1375C19.4602 16.1736 19.3859 16.1964 19.309 16.2046C19.232 16.2127 19.1541 16.2059 19.0801 16.1846C19.0062 16.1634 18.9377 16.1281 18.8792 16.081C18.8206 16.034 18.7732 15.9761 18.74 15.9112C18.7067 15.8463 18.6883 15.7756 18.686 15.7038C18.6836 15.6319 18.6973 15.5603 18.7263 15.4936C18.7552 15.4269 18.7987 15.3665 18.854 15.3162C18.9094 15.266 18.9754 15.2269 19.0478 15.2015L20.7054 14.4735C20.7806 14.4402 20.8629 14.4229 20.9462 14.4229C21.0295 14.4229 21.1118 14.4402 21.187 14.4735L22.8871 15.2254L22.6408 13.4917C22.6299 13.415 22.6377 13.337 22.6635 13.2634C22.6892 13.1898 22.7324 13.1225 22.7897 13.0663L24.0878 11.7934L22.2308 11.4699C22.1489 11.4558 22.0713 11.4248 22.0039 11.3793C21.9365 11.3338 21.8808 11.2748 21.8411 11.2068L20.9451 9.66761L20.2619 10.8335C20.1907 10.9545 20.0707 11.0444 19.9282 11.0833C19.7857 11.1222 19.6324 11.107 19.502 11.0409C19.3715 10.9749 19.2747 10.8634 19.2328 10.7311C19.1909 10.5987 19.2074 10.4564 19.2785 10.3353L20.4545 8.32809C20.5028 8.24618 20.5739 8.17785 20.6604 8.13027C20.7469 8.08269 20.8456 8.05762 20.9462 8.05769C21.0469 8.05772 21.1456 8.08295 21.2322 8.13072C21.3187 8.17849 21.3898 8.24703 21.4379 8.32913L22.6979 10.484L25.303 10.9375C25.4019 10.9547 25.4939 10.9963 25.5695 11.058C25.645 11.1197 25.7013 11.1991 25.7323 11.288C25.7634 11.3769 25.7681 11.4718 25.7459 11.563C25.7238 11.6541 25.6756 11.738 25.6065 11.8059L23.7854 13.5926L24.1304 16.0303C24.1408 16.1041 24.134 16.179 24.1106 16.2501C24.0871 16.3213 24.0476 16.3869 23.9945 16.4426C23.9414 16.4983 23.8761 16.5427 23.8029 16.573C23.7297 16.6032 23.6504 16.6186 23.5704 16.6179L23.5759 16.62Z" fill="#BD55D5"/>
</svg>
