<svg width="25" height="25" viewBox="0 0 25 25" fill="none" xmlns="http://www.w3.org/2000/svg">
<path d="M12.45 21C7.775 21 4 17.2 4 12.55C4 7.87498 7.8 4.09998 12.45 4.09998C17.1 4.09998 20.9 7.89998 20.9 12.55C20.9 17.2 17.125 21 12.45 21ZM12.45 4.99998C8.3 4.99998 4.9 8.37497 4.9 12.525C4.9 16.675 8.275 20.075 12.45 20.075C16.625 20.075 20 16.7 20 12.525C20 8.37497 16.6 4.99998 12.45 4.99998Z" fill="white"/>
<path d="M15.8992 16.0111C15.7742 16.0111 15.6742 15.9613 15.5742 15.8866L12.5742 12.8986C12.4992 12.8239 12.4492 12.6994 12.4492 12.5749V7.12178C12.4492 6.87278 12.6492 6.67358 12.8992 6.67358C13.1492 6.67358 13.3492 6.87278 13.3492 7.12178V12.4006L16.1992 15.2392C16.3742 15.4135 16.3742 15.7123 16.1992 15.8866C16.1242 15.9613 15.9992 16.0111 15.8992 16.0111Z" fill="white"/>
</svg>
