<svg width="14" height="20" viewBox="0 0 14 20" fill="none" xmlns="http://www.w3.org/2000/svg">
<path d="M11 0H3C1.34387 0.0018311 0.0018311 1.34387 0 3V19.5C0.0001221 19.5871 0.0230103 19.6727 0.0663452 19.7483C0.20398 19.9882 0.510071 20.0712 0.75 19.9336L7 16.334L13.25 19.9336C13.3262 19.9769 13.4124 19.9998 13.5 20C13.7759 19.9995 13.9995 19.7759 14 19.5V3C13.9982 1.34387 12.6561 0.0018311 11 0ZM13 18.6348L7.25 15.3232C7.17377 15.28 7.08765 15.2571 7 15.2568C6.91235 15.2571 6.82623 15.28 6.75 15.3232L1 18.6348V3C1.0014 1.896 1.896 1.0014 3 1H11C12.104 1.0014 12.9986 1.896 13 3V18.6348Z" fill="white"/>
</svg>
